<?xml version="1.0" encoding="utf-8"?>
<!-- Generator: Adobe Illustrator 25.2.2, SVG Export Plug-In . SVG Version: 6.00 Build 0)  -->
<svg version="1.1" id="Layer_1" xmlns="http://www.w3.org/2000/svg" xmlns:xlink="http://www.w3.org/1999/xlink" x="0px" y="0px"
	 viewBox="0 0 1366 768" style="enable-background:new 0 0 1366 768;" xml:space="preserve">
<style type="text/css">
	.st0{fill:#FFFFFF;}
	.st1{fill:none;stroke:#FFFFFF;stroke-width:7;stroke-miterlimit:10;}
</style>
<g>
	<g>
		<path class="st0" d="M384.7,372.1h-15V387h-7v-34.9h7v14.4h15v-14.4h7V387h-7V372.1z"/>
		<path class="st0" d="M418.9,357.7h-13.3v8.8h11.8v5.6h-11.8v9.3h13.3v5.7h-20.3v-35h20.3V357.7z"/>
		<path class="st0" d="M432.2,352.1v29.4h11.5v5.6h-18.5v-34.9h7V352.1z"/>
		<path class="st0" d="M448.2,352.1h7V387h-7V352.1z"/>
		<path class="st0" d="M475.4,375.2l-6.9,11.8h-7.9l11-17.6l-11.2-17.3h8.1l7.6,11.7l6.8-11.7h7.9l-11,17.6L491,387h-8L475.4,375.2z
			"/>
	</g>
	<g>
		<path class="st0" d="M846.8,351.6c7.8,0,14.1,4.1,16.4,11.3h-8.1c-1.7-3.4-4.7-5-8.4-5c-6.1,0-10.5,4.5-10.5,11.6
			s4.4,11.6,10.5,11.6c3.8,0,6.8-1.7,8.4-5.1h8.1c-2.4,7.2-8.7,11.3-16.4,11.3c-10.1,0-17.7-7.4-17.7-17.8S836.7,351.6,846.8,351.6z
			"/>
		<path class="st0" d="M890.6,380.3h-13.9l-2.3,6.7H867l12.6-35h8.2l12.6,35H893L890.6,380.3z M883.6,360.1l-5.1,14.6h10.1
			L883.6,360.1z"/>
		<path class="st0" d="M920,387h-15v-34.9h14.4c7.3,0,11.4,3.8,11.4,9c0,4.2-2.6,6.9-6,8c4,0.7,6.8,4.4,6.8,8.5
			C931.5,383.1,927.3,387,920,387z M918.4,357.7H912v8.8h6.4c3.3,0,5.2-1.5,5.2-4.4C923.6,359.3,921.7,357.7,918.4,357.7z
			 M918.9,371.9H912v9.4h7.1c3.4,0,5.4-1.7,5.4-4.6C924.4,373.7,922.3,371.9,918.9,371.9z"/>
		<path class="st0" d="M944.1,352.1v29.4h11.5v5.6h-18.5v-34.9h7V352.1z"/>
		<path class="st0" d="M980.3,357.7H967v8.8h11.8v5.6H967v9.3h13.3v5.7H960v-35h20.3V357.7z"/>
		<path class="st0" d="M998.7,387.3c-7.2,0-12.9-3.8-13-10.4h7.5c0.2,2.8,2,4.7,5.3,4.7s5.3-1.8,5.3-4.2c0-7.6-18-3-18-15.7
			c0-6.3,5.1-10.1,12.3-10.1s12.1,3.7,12.5,10h-7.7c-0.1-2.3-2-4.1-5-4.1c-2.8-0.1-4.8,1.2-4.8,4.1c0,7,17.9,3.1,17.9,15.4
			C1011.1,382.4,1006.7,387.3,998.7,387.3z"/>
	</g>
	<g>
		<path class="st1" d="M629.9,434.3L629.9,434.3c-7.9-2.9-11.9-11.5-9-19.4L663,299.2c2.9-7.9,11.5-11.9,19.4-9l0,0
			c7.9,2.9,11.9,11.5,9,19.4l-42.1,115.7C646.5,433.1,637.8,437.1,629.9,434.3z"/>
		<path class="st1" d="M676.6,434.3L676.6,434.3c-7.9-2.9-11.9-11.5-9-19.4l42.1-115.7c2.9-7.9,11.5-11.9,19.4-9l0,0
			c7.9,2.9,11.9,11.5,9,19.4L696,425.2C693.2,433.1,684.5,437.1,676.6,434.3z"/>
		<path class="st1" d="M722.9,434.3L722.9,434.3c-7.9-2.9-11.9-11.5-9-19.4L756,299.2c2.9-7.9,11.5-11.9,19.4-9l0,0
			c7.9,2.9,11.9,11.5,9,19.4l-42.1,115.7C739.5,433.1,730.8,437.1,722.9,434.3z"/>
		<path class="st1" d="M583.2,434.3L583.2,434.3c-7.9-2.9-11.9-11.5-9-19.4l42.1-115.7c2.9-7.9,11.5-11.9,19.4-9l0,0
			c7.9,2.9,11.9,11.5,9,19.4l-42.1,115.7C599.8,433.1,591.1,437.1,583.2,434.3z"/>
		<path class="st1" d="M514.9,365.6L514.9,365.6c-7.9-2.9-11.9-11.5-9-19.4l17.1-47c2.9-7.9,11.5-11.9,19.4-9l0,0
			c7.9,2.9,11.9,11.5,9,19.4l-17.1,47C531.4,364.4,522.7,368.4,514.9,365.6z"/>
		<path class="st1" d="M769.3,434.3L769.3,434.3c-7.9-2.9-11.9-11.5-9-19.4l17.1-46.9c2.9-7.9,11.5-11.9,19.4-9l0,0
			c7.9,2.9,11.9,11.5,9,19.4l-17.1,46.9C785.9,433.1,777.2,437.1,769.3,434.3z"/>
		<path class="st1" d="M536.6,434.1L536.6,434.1c-7.9-2.9-11.9-11.5-9-19.4L569.7,299c2.9-7.9,11.5-11.9,19.4-9l0,0
			c7.9,2.9,11.9,11.5,9,19.4L556,425C553.2,432.9,544.5,436.9,536.6,434.1z"/>
	</g>
</g>
</svg>
